<?xml version="1.0" encoding="UTF-8"?>
<svg width="60px" height="35px" viewBox="0 0 60 35" version="1.1" xmlns="http://www.w3.org/2000/svg" xmlns:xlink="http://www.w3.org/1999/xlink">
    <!-- Generator: Sketch 51.3 (57544) - http://www.bohemiancoding.com/sketch -->
    <title>icons/tim-logo</title>
    <desc>Created with Sketch.</desc>
    <defs>
        <linearGradient x1="50.0004824%" y1="4.26774868%" x2="50.0004824%" y2="133.388549%" id="linearGradient-1">
            <stop stop-color="#484848" offset="0%"></stop>
            <stop stop-color="#0E0F0F" offset="100%"></stop>
        </linearGradient>
    </defs>
    <g id="Web-Design" stroke="none" stroke-width="1" fill="none" fill-rule="evenodd">
        <g id="Desktop-HD-/-Home" transform="translate(-50.000000, -41.000000)" fill="url(#linearGradient-1)">
            <g id="header" transform="translate(50.000000, 41.000000)">
                <g id="icons/tim-logo">
                    <path d="M21.9047619,0 C22.6785714,9.5029837 23.4206078,17.0217188 24.1326361,26.5295583 C26.8020252,26.6324126 29.4734001,26.6776596 32.1445544,26.6644166 C32.8303257,17.5814579 33.5434573,10.4871622 34.2857143,1.40861786 C30.1688799,0.742934459 26.0694767,0.264198618 21.907851,0 L21.9047619,0 Z" id="Fill-1"></path>
                    <path d="M23.8095238,34.2857143 C26.6810836,34.206731 29.52157,34.0248756 32.3809524,33.7450981 C32.3618464,31.8559546 32.3425305,29.7515976 32.3225848,27.8622388 C29.6275975,27.8570737 26.9330301,27.7750774 24.2424518,27.6190476 C24.0971627,29.7694603 23.9531333,32.1348712 23.8095238,34.2857143" id="Fill-4"></path>
                    <path d="M0.117353253,7.51906535 C0.0574611033,7.51086282 0.0187853607,7.50864592 0,7.51241465 C0.0450848656,7.61771748 0.264100071,8.45260264 0.649531471,10.0325885 C0.687102192,10.1908752 0.705887553,10.2700186 0.743458274,10.4289705 C0.938163013,11.2960007 1.03518388,11.7320653 1.2290046,12.6095149 C1.43387553,13.4865212 1.62084512,14.0451805 1.79278642,14.2857143 C3.42799682,14.1640064 5.6981524,14.0021726 5.71428571,14.0001774 C5.16531117,11.553383 4.60838048,9.1094706 4.04260962,6.66666667 C2.37778465,6.98634389 1.76913897,7.15682362 0.117353253,7.51906535" id="Fill-7"></path>
                    <path d="M19.4940168,3.82404542 C14.8697136,4.29535703 10.2919997,4.92982318 5.71428571,5.73385046 C6.89098473,11.1946158 8.01831625,16.664564 9.10675216,22.144122 C9.53182559,24.9519177 9.8049497,26.7444821 9.93830608,27.5412486 C10.0543518,27.685824 10.1169694,27.7631302 10.1265865,27.7733808 C10.2195512,27.8622188 10.2659268,27.907065 10.3588916,27.9963302 C10.6450521,28.0170448 11.0763232,28.056125 11.6531323,28.1107946 C12.5090494,28.1917312 12.9377559,28.229103 13.7953827,28.2985078 C14.1059064,28.3290458 14.2608477,28.3439946 14.5711578,28.3730378 C14.5752183,28.3679125 14.5771417,28.3653499 14.5807748,28.360011 C15.5728265,28.4518389 16.0692798,28.4941224 17.0628275,28.5714286 C17.1795144,28.5690795 17.249612,28.5020238 17.2737614,28.3711158 C16.9640925,25.7527417 16.6505768,23.1345811 16.333428,20.5168477 C16.2310599,19.6961633 16.0562434,18.214105 15.8036356,16.0516667 C15.5461125,13.8448093 15.4779383,13.1990249 15.3710823,12.141083 C17.574027,12.0385775 18.6789187,11.9954398 20.8914805,11.9251809 C20.951961,11.9228318 20.9677757,11.7346915 20.9372149,11.3596924 C20.8874199,10.8097932 20.8624156,10.5349504 20.8126207,9.98547839 C20.624554,7.68102729 20.5305207,6.52997628 20.3407443,4.23129111 C20.3259981,4.04998456 20.2697919,3.92911352 20.173194,3.86953222 C20.1084392,3.82981135 19.9846999,3.80952381 19.8024034,3.80952381 C19.7134992,3.80952381 19.6107036,3.81443553 19.4940168,3.82404542" id="Fill-10"></path>
                    <path d="M36.4409037,3.23557049 C36.3853276,3.93021848 34.2867913,28.4526317 34.2857143,28.4623516 C34.2945461,28.4569516 35.79467,28.4636475 37.1465909,28.4703435 C38.1713022,28.4753114 39.1107106,28.4802793 39.251805,28.4802793 C39.471309,26.692684 40.6170814,17.84521 41.1030491,14.7711335 C41.2839946,14.7696215 41.1592715,14.7689735 41.3404323,14.7674615 C41.4250889,16.8786211 42.1908759,25.9334527 42.27424,28.2932255 C42.2705781,28.2876096 42.2690702,28.2845856 42.2651928,28.2789697 C42.2738092,28.4811433 42.4487231,28.5787742 42.7916578,28.5709983 C42.9168118,28.5681903 42.7638698,28.5666784 42.8885929,28.5636544 C43.2422982,28.5491826 42.9883283,28.5416226 43.3416027,28.5252068 C43.5514133,28.5189429 43.656534,28.5159189 43.8663445,28.508791 C44.1392705,28.4938872 44.2758413,28.4863273 44.5487673,28.4703435 C45.0452902,28.4686155 45.2936594,28.4668875 45.7899669,28.4610556 C45.8479125,28.4586796 45.876993,28.4569516 45.9347232,28.4543596 C46.6322248,28.42196 46.6065909,28.334697 46.7190355,28.2007786 C46.8627148,27.816519 47.0645552,27.2497415 47.3252028,26.5028222 C47.5880045,25.7505028 47.7741198,25.2280049 47.8824716,24.9340322 C47.9660512,24.7050749 48.0082718,24.5910282 48.0920668,24.3627188 C49.0592632,21.7402931 50.0380919,19.1185153 51.1274265,16.543825 C51.2997555,16.5971764 51.38592,16.6237441 51.558249,16.6764475 C51.4604523,17.1779937 51.302125,17.9506168 51.0839134,18.9919408 C50.9863322,19.4600074 50.9372184,19.6943647 50.8396371,20.1639433 C50.7707055,20.4877235 50.7362397,20.6497217 50.6670927,20.9739339 C52.8834589,20.9398063 54.4191256,20.9182066 56.6178282,20.8678791 C57.2657852,18.1696383 57.9210661,15.4731254 58.5881947,12.7796364 C59.125215,10.6058375 59.394479,9.53340986 59.9336533,7.41944224 C59.9763048,7.2494522 59.9984921,7.11682973 60,7.02157483 L60,7.00148706 C59.9989229,6.92977589 59.9847058,6.88182444 59.9571332,6.85720073 C59.3946944,6.71550636 59.1131519,6.64595516 58.5492053,6.50944474 C58.6812524,6.53514844 58.7471682,6.54810829 58.8794307,6.57445999 C56.1372457,5.93553935 53.375889,5.37912977 50.6009615,4.90307126 C50.5807128,4.89918331 50.5703731,4.89723933 50.549909,4.89356737 C50.4820544,4.97370245 50.3252351,5.40828944 50.0811741,6.2007843 C49.8390519,6.98766322 49.6912798,7.46285774 49.6357037,7.62442388 C48.4175531,11.1927027 47.3084007,14.6061114 46.2378068,17.9372249 C46.0715094,17.929449 45.9883606,17.9255611 45.8222785,17.9173532 C45.8498512,15.6158997 45.8632067,14.461609 45.8886252,12.1456837 C45.9118896,9.52239399 45.9476479,6.89888824 46.0271346,4.27646249 C45.5728323,4.20755928 44.8320331,4.04858512 43.8012903,3.80882788 C42.7690397,3.56885465 41.0375641,3.28503392 38.597601,3.03145285 C38.1816419,2.99516527 37.9735547,2.97810146 37.5571648,2.94505384 C37.1829954,2.90876626 36.9955877,2.89127046 36.6212029,2.85714286 C36.5126357,2.98522938 36.4527513,3.11158792 36.4409037,3.23557049" id="Fill-13"></path>
                    <path d="M50.0571518,22.9975346 C49.8464404,23.6907965 49.741196,24.0383592 49.5309297,24.7364355 C49.5284821,24.7452876 49.5264796,24.7528973 49.5238095,24.7619048 C51.7808907,24.6712092 53.3517694,24.6182517 55.5928303,24.4978937 C55.7338979,24.123464 55.880973,23.7423563 56.0191481,23.3542601 C56.0749966,23.1984936 56.1319576,23.0270417 56.1904762,22.8571429 C53.9242723,22.9220585 52.3407109,22.9504785 50.0571518,22.9975346" id="Fill-16"></path>
                    <path d="M49.7617561,26.1647832 C49.4980688,27.5593877 49.4532061,28.3654495 49.6288386,28.5714286 C51.1770767,28.4688745 52.8231536,28.3689333 53.6175563,28.2929431 C53.5540805,28.2986043 53.5223426,28.3009994 53.4586281,28.3064428 C53.6710097,28.2888061 54.0000819,28.2522264 54.4446515,28.1958325 C54.6677715,28.1657848 54.7792122,28.150761 55.001855,28.1202778 C55.3080186,28.0752063 55.4877078,28.0000871 55.539968,27.8951379 C55.7537814,27.1938076 55.970697,26.4646069 56.1904762,25.7142857 C53.8182451,25.9187406 52.1499755,26.0093191 49.7617561,26.1647832" id="Fill-19"></path>
                </g>
            </g>
        </g>
    </g>
</svg>